<?xml version="1.0" encoding="UTF-8" standalone="no"?>
<!-- Created with Inkscape (http://www.inkscape.org/) -->

<svg
   xmlns:dc="http://purl.org/dc/elements/1.1/"
   xmlns:cc="http://creativecommons.org/ns#"
   xmlns:rdf="http://www.w3.org/1999/02/22-rdf-syntax-ns#"
   xmlns:svg="http://www.w3.org/2000/svg"
   xmlns="http://www.w3.org/2000/svg"
   xmlns:xlink="http://www.w3.org/1999/xlink"
   xmlns:sodipodi="http://sodipodi.sourceforge.net/DTD/sodipodi-0.dtd"
   xmlns:inkscape="http://www.inkscape.org/namespaces/inkscape"
   inkscape:version="0.47 r22583"
   version="1.1"
   id="svg2"
   height="32"
   width="32"
   sodipodi:docname="New document 1"
   inkscape:export-filename="C:\workspace\JpedalDEBUG\src\org\jpedal\examples\simpleviewer\res\icon.png"
   inkscape:export-xdpi="90"
   inkscape:export-ydpi="90">
  <sodipodi:namedview
     id="base"
     pagecolor="#ffffff"
     bordercolor="#666666"
     borderopacity="1.0"
     inkscape:pageopacity="0.0"
     inkscape:pageshadow="2"
     inkscape:zoom="1.761414"
     inkscape:cx="21.148665"
     inkscape:cy="12.879864"
     inkscape:document-units="px"
     inkscape:current-layer="svg2"
     showgrid="false"
     inkscape:window-width="1600"
     inkscape:window-height="1138"
     inkscape:window-x="-8"
     inkscape:window-y="-8"
     inkscape:window-maximized="1" />
  <defs
     id="defs4">
    <linearGradient
       id="linearGradient4036">
      <stop
         style="stop-color:#2aabff;stop-opacity:1;"
         offset="0"
         id="stop4038" />
      <stop
         style="stop-color:#1429ff;stop-opacity:1;"
         offset="1"
         id="stop4040" />
    </linearGradient>
    <inkscape:path-effect
       effect="construct_grid"
       id="path-effect3250"
       is_visible="true"
       nr_x="5"
       nr_y="5" />
    <inkscape:perspective
       id="perspective10"
       inkscape:persp3d-origin="372.04724 : 350.78739 : 1"
       inkscape:vp_z="744.09448 : 526.18109 : 1"
       inkscape:vp_y="0 : 1000 : 0"
       inkscape:vp_x="0 : 526.18109 : 1"
       sodipodi:type="inkscape:persp3d" />
    <filter
       id="filter3252"
       inkscape:label="Jigsaw piece"
       inkscape:menu="Bevels"
       inkscape:menu-tooltip="Low, sharp bevel"
       color-interpolation-filters="sRGB">
      <feSpecularLighting
         id="feSpecularLighting3254"
         in="SourceAlpha"
         surfaceScale="1"
         specularConstant="2"
         specularExponent="18.5"
         result="result1">
        <feDistantLight
           id="feDistantLight3256"
           elevation="30"
           azimuth="225" />
      </feSpecularLighting>
      <feComposite
         id="feComposite3258"
         in2="SourceGraphic"
         result="result0"
         operator="atop" />
      <feMorphology
         id="feMorphology3260"
         radius="2"
         result="result1"
         in="SourceAlpha"
         operator="dilate" />
      <feComposite
         id="feComposite3262"
         in2="result1"
         in="result0" />
    </filter>
    <radialGradient
       inkscape:collect="always"
       xlink:href="#linearGradient4036"
       id="radialGradient4042"
       cx="276.39349"
       cy="230.13393"
       fx="276.39349"
       fy="230.13393"
       r="232.97213"
       gradientTransform="matrix(1,0,0,0.98504121,0,3.442524)"
       gradientUnits="userSpaceOnUse" />
  </defs>
  <metadata
     id="metadata7">
    <rdf:RDF>
      <cc:Work
         rdf:about="">
        <dc:format>image/svg+xml</dc:format>
        <dc:type
           rdf:resource="http://purl.org/dc/dcmitype/StillImage" />
        <dc:title></dc:title>
      </cc:Work>
    </rdf:RDF>
  </metadata>
  <g
     id="layer1"
     inkscape:groupmode="layer"
     inkscape:label="Layer 1"
     transform="translate(0,-1020.3622)" />
  <path
     id="rect3211"
     d="m 66.991627,101.26253 c 0,0 20.74111,0 51.473313,0 15.15745,0 19.12751,-0.81551 62.82833,0 60.84569,1.13545 -56.81557,-98.4376465 35.57722,-97.6488165 100.34966,0.86645 -20.7263,97.6488165 41.25504,97.6488165 18.72891,0 51.07801,0 66.23575,0 30.7321,0 51.47313,0 51.47313,0 1.83275,0 3.60768,0.23883 5.29547,0.68718 1.74958,0.46477 3.40553,1.15469 4.93523,2.03713 1.55319,0.896 2.97622,1.99047 4.23491,3.24926 1.25895,1.25905 2.35351,2.68247 3.24949,4.2361 0.88211,1.52957 1.57175,3.18535 2.0363,4.93471 0.44806,1.68728 0.68672,3.46161 0.68672,5.29374 0,0 0,21.12238 0,52.41951 0,15.43608 0,60.59807 0,79.67085 0,46.3893 109.18271,-74.35318 110.13878,19.49165 1.02556,100.6654 -111.27423,-6.45914 -110.13878,41.0658 0.45556,19.06775 0,54.01651 0,69.45288 0,31.29703 0,52.41933 0,52.41933 0,1.83276 -0.23883,3.60768 -0.68718,5.29547 -0.46477,1.74958 -1.15469,3.40554 -2.03713,4.93523 -0.896,1.5532 -1.99047,2.97622 -3.24926,4.23492 -1.25905,1.25895 -2.68247,2.35351 -4.2361,3.24949 -1.52957,0.88211 -3.18535,1.57175 -4.93471,2.0363 -1.68728,0.44806 -3.46161,0.68672 -5.29374,0.68672 0,0 -20.74111,0 -51.47331,0 -15.15745,0 -52.04798,0 -70.77649,0 -41.54302,0 68.17232,-101.05517 -31.03541,-101.05517 -86.71794,0 2.55908,101.05517 -32.17143,101.05517 -18.72891,0 -56.75527,0 -71.91301,0 -30.732103,0 -51.473133,0 -51.473133,0 -1.83275,0 -3.60768,-0.23883 -5.29547,-0.68718 -1.74958,-0.46477 -3.40553,-1.15469 -4.93523,-2.03713 -1.55319,-0.896 -2.97622,-1.99047 -4.23491,-3.24927 -1.25895,-1.25904 -2.35351,-2.68246 -3.24949,-4.23609 -0.88211,-1.52957 -1.57175,-3.18535 -2.0363,-4.93472 -0.44806,-1.68727 -0.68672,-3.46161 -0.68672,-5.29374 0,0 0,-21.12238 0,-52.41951 0,-15.43608 0,-56.05627 0,-75.12905 0,-47.52474 104.295973,63.03303 104.461533,-30.84616 0.14944,-84.74165 -103.326083,23.49091 -104.461533,-28.57583 -0.41584,-19.06866 0,-59.69377 0,-75.13014 0,-31.29703 0,-52.41933 0,-52.41933 0,-1.83275 0.23883,-3.60768 0.68718,-5.29547 0.46477,-1.74958 1.15469,-3.40553 2.03713,-4.93523 0.896,-1.55319 1.99047,-2.97622 3.24926,-4.23491 1.25905,-1.25895 2.68247,-2.35351 4.2361,-3.24949 1.52957,-0.88211 3.18535,-1.57175 4.93471,-2.0363 1.68728,-0.44806 3.46161,-0.68672 5.29374,-0.68672 0,0 0,0 0,0 0,0 0,0 0,0 0,0 0,0 0,0 0,0 0,0 0,0 0,0 0,0 0,0 0,0 0,0 0,0"
     style="fill:url(#radialGradient4042);fill-rule:evenodd;stroke:#000000;stroke-width:18.64482045000000100;stroke-linecap:butt;stroke-linejoin:miter;stroke-opacity:1;fill-opacity:1;stroke-miterlimit:4;stroke-dasharray:none;"
     sodipodi:nodetypes="cssssscssssscssssscssssscssssscssssscssssscsssssccccccc"
     transform="matrix(0.04580218,0.02682971,-0.02566535,0.04777138,12.343447,-2.8164747)" />
</svg>
